<?xml version="1.0" encoding="utf-8"?>
<!-- Generator: Adobe Illustrator 27.5.0, SVG Export Plug-In . SVG Version: 6.00 Build 0)  -->
<svg version="1.1" id="Calque_1" xmlns="http://www.w3.org/2000/svg" xmlns:xlink="http://www.w3.org/1999/xlink" x="0px" y="0px"
	 viewBox="0 0 48 47" style="enable-background:new 0 0 48 47;" xml:space="preserve">
<style type="text/css">
	.st0{clip-path:url(#SVGID_00000149349550073668410590000001837461156611436928_);}
	.st1{fill:#FE705A;}
	.st2{fill:#FFFFFF;}
</style>
<g>
	<defs>
		<rect id="SVGID_1_" y="-1" width="48" height="48"/>
	</defs>
	<clipPath id="SVGID_00000052789219621995449030000002987484968739270843_">
		<use xlink:href="#SVGID_1_"  style="overflow:visible;"/>
	</clipPath>
	<g style="clip-path:url(#SVGID_00000052789219621995449030000002987484968739270843_);">
		<path class="st1" d="M0,14.6C0,8.4,3.8,2.7,9.9,1.3c10.1-2.5,25.4-4.5,32.9,3c6.3,6.3,5.9,18.2,4.1,27.8
			C45.1,41.2,36.6,47,27.3,47H7.5C3.4,47,0,43.6,0,39.5V14.6z"/>
	</g>
</g>
<g>
	<path class="st2" d="M13.7,42.3L13,41.6c-0.4-0.4-0.7-0.9-0.7-1.4c0-0.5,0.3-1.2,1-2.2c0.7-1,1.7-2.2,3-3.5s3.1-2.7,5.2-4.2
		s4.4-2.9,7.1-4.2c-0.2-1-0.4-1.7-0.8-2.1c-0.4-0.4-1.1-0.5-2.1-0.5c-0.8,0-2.2,0.4-4.2,1.3c-2,0.8-3.8,1.9-5.4,3.2
		c-0.6,0.5-1,0.7-1.2,0.7c-0.3,0-0.4-0.2-0.4-0.7c0-0.8,0.2-1.7,0.7-2.7c0.5-1,1-1.8,1.7-2.4c0.9-0.8,2.3-1.6,4.2-2.5
		c2.1-1,3.9-2,5.6-3.2s3-2.2,4-3.2s1.4-1.7,1.4-2.3c0-0.5-0.5-0.8-1.6-0.8c-1.4,0-3,0.3-4.8,0.9s-3.9,1.6-6.2,2.9s-4.6,2.9-7.1,4.8
		c0.1-2,0.3-3.5,0.5-4.6c0.2-1.1,0.6-2.1,1.1-2.8s1.1-1.3,1.9-1.9c0.8-0.5,1.9-1.3,3.5-2.1c4.2-2.4,7.8-3.6,10.7-3.6
		c1.7,0,3.1,0.4,4.1,1.3c1,0.9,1.5,2.1,1.5,3.6c0,1.1-0.2,2.1-0.7,3s-1.1,1.8-2,2.6s-1.9,1.6-3.1,2.3c-1.2,0.7-2.6,1.5-4.3,2.3
		c1.9,0.1,3.2,0.5,4.1,1.2c0.8,0.8,1.4,2.1,1.6,4l2.8-1.2v1.6l-2.9,1.3c-0.5,2.4-1.5,4.6-3,6.6c-1.4,2-3,3.7-4.8,5.1
		c-1.8,1.4-3.5,2.5-5.1,3.3c-1.6,0.8-2.8,1.2-3.6,1.2C14.3,42.7,14,42.5,13.7,42.3z M28.1,28.2c-1.6,0.7-3.2,1.6-4.8,2.8
		c-1.5,1.1-2.9,2.3-4,3.4c-1.1,1.1-2,2.2-2.8,3.1c-0.7,1-1.1,1.6-1.1,1.9c0,0.3,0.2,0.4,0.6,0.4c0.6,0,1.8-0.5,3.4-1.5
		s3.4-2.5,5.2-4.4c1.2-1.3,2-2.3,2.4-3.1C27.5,29.9,27.8,29.1,28.1,28.2z"/>
</g>
</svg>
